<mxfile host="app.diagrams.net" agent="Mozilla/5.0 (Windows NT 10.0; Win64; x64) AppleWebKit/537.36 (KHTML, like Gecko) Chrome/126.0.0.0 Safari/537.36" version="24.7.17">
  <diagram name="Halaman-1" id="eG2udS3gC4odb2gB627N">
    <mxGraphModel dx="954" dy="600" grid="1" gridSize="10" guides="1" tooltips="1" connect="1" arrows="1" fold="1" page="1" pageScale="1" pageWidth="827" pageHeight="1169" math="0" shadow="0">
      <root>
        <mxCell id="0" />
        <mxCell id="1" parent="0" />
        <mxCell id="37hywJdGNK_DIzSZODOu-3" value="obat" style="ellipse;whiteSpace=wrap;html=1;" vertex="1" parent="1">
          <mxGeometry x="140" y="100" width="100" height="60" as="geometry" />
        </mxCell>
        <mxCell id="37hywJdGNK_DIzSZODOu-10" value="tablet" style="ellipse;whiteSpace=wrap;html=1;" vertex="1" parent="1">
          <mxGeometry x="430" y="190" width="80" height="40" as="geometry" />
        </mxCell>
        <mxCell id="37hywJdGNK_DIzSZODOu-11" value="komposisi" style="ellipse;whiteSpace=wrap;html=1;" vertex="1" parent="1">
          <mxGeometry x="110" y="20" width="80" height="40" as="geometry" />
        </mxCell>
        <mxCell id="37hywJdGNK_DIzSZODOu-12" value="sirup" style="ellipse;whiteSpace=wrap;html=1;" vertex="1" parent="1">
          <mxGeometry x="510" y="230" width="80" height="40" as="geometry" />
        </mxCell>
        <mxCell id="37hywJdGNK_DIzSZODOu-13" value="jenis obat" style="ellipse;whiteSpace=wrap;html=1;" vertex="1" parent="1">
          <mxGeometry x="490" y="100" width="100" height="60" as="geometry" />
        </mxCell>
        <mxCell id="37hywJdGNK_DIzSZODOu-14" value="dosis" style="ellipse;whiteSpace=wrap;html=1;" vertex="1" parent="1">
          <mxGeometry x="100" y="210" width="70" height="40" as="geometry" />
        </mxCell>
        <mxCell id="37hywJdGNK_DIzSZODOu-15" value="khasiat" style="ellipse;whiteSpace=wrap;html=1;" vertex="1" parent="1">
          <mxGeometry x="200" y="200" width="80" height="40" as="geometry" />
        </mxCell>
        <mxCell id="37hywJdGNK_DIzSZODOu-16" value="&lt;u&gt;id obat&lt;/u&gt;" style="ellipse;whiteSpace=wrap;html=1;" vertex="1" parent="1">
          <mxGeometry x="20" y="70" width="80" height="40" as="geometry" />
        </mxCell>
        <mxCell id="37hywJdGNK_DIzSZODOu-17" value="merek" style="ellipse;whiteSpace=wrap;html=1;" vertex="1" parent="1">
          <mxGeometry x="40" y="150" width="70" height="40" as="geometry" />
        </mxCell>
        <mxCell id="37hywJdGNK_DIzSZODOu-18" value="" style="rhombus;whiteSpace=wrap;html=1;" vertex="1" parent="1">
          <mxGeometry x="340" y="110" width="50" height="40" as="geometry" />
        </mxCell>
        <mxCell id="37hywJdGNK_DIzSZODOu-19" value="" style="endArrow=none;html=1;rounded=0;exitX=1;exitY=0.5;exitDx=0;exitDy=0;entryX=0;entryY=0.5;entryDx=0;entryDy=0;" edge="1" parent="1" source="37hywJdGNK_DIzSZODOu-3" target="37hywJdGNK_DIzSZODOu-18">
          <mxGeometry width="50" height="50" relative="1" as="geometry">
            <mxPoint x="390" y="340" as="sourcePoint" />
            <mxPoint x="440" y="290" as="targetPoint" />
          </mxGeometry>
        </mxCell>
        <mxCell id="37hywJdGNK_DIzSZODOu-20" value="" style="endArrow=none;html=1;rounded=0;entryX=1;entryY=0.5;entryDx=0;entryDy=0;exitX=0;exitY=0.5;exitDx=0;exitDy=0;" edge="1" parent="1" source="37hywJdGNK_DIzSZODOu-13" target="37hywJdGNK_DIzSZODOu-18">
          <mxGeometry width="50" height="50" relative="1" as="geometry">
            <mxPoint x="390" y="340" as="sourcePoint" />
            <mxPoint x="440" y="290" as="targetPoint" />
          </mxGeometry>
        </mxCell>
        <mxCell id="37hywJdGNK_DIzSZODOu-22" value="infus" style="ellipse;whiteSpace=wrap;html=1;" vertex="1" parent="1">
          <mxGeometry x="610" y="210" width="80" height="40" as="geometry" />
        </mxCell>
        <mxCell id="37hywJdGNK_DIzSZODOu-23" value="salep" style="ellipse;whiteSpace=wrap;html=1;" vertex="1" parent="1">
          <mxGeometry x="650" y="150" width="80" height="40" as="geometry" />
        </mxCell>
        <mxCell id="37hywJdGNK_DIzSZODOu-24" value="pil" style="ellipse;whiteSpace=wrap;html=1;" vertex="1" parent="1">
          <mxGeometry x="640" y="90" width="80" height="40" as="geometry" />
        </mxCell>
        <mxCell id="37hywJdGNK_DIzSZODOu-25" value="&lt;u&gt;id jenis obat&lt;/u&gt;" style="ellipse;whiteSpace=wrap;html=1;" vertex="1" parent="1">
          <mxGeometry x="580" y="30" width="90" height="40" as="geometry" />
        </mxCell>
        <mxCell id="37hywJdGNK_DIzSZODOu-26" value="" style="endArrow=none;html=1;rounded=0;entryX=0.5;entryY=1;entryDx=0;entryDy=0;exitX=0.5;exitY=0;exitDx=0;exitDy=0;" edge="1" parent="1" source="37hywJdGNK_DIzSZODOu-3" target="37hywJdGNK_DIzSZODOu-11">
          <mxGeometry width="50" height="50" relative="1" as="geometry">
            <mxPoint x="390" y="280" as="sourcePoint" />
            <mxPoint x="440" y="230" as="targetPoint" />
          </mxGeometry>
        </mxCell>
        <mxCell id="37hywJdGNK_DIzSZODOu-27" value="" style="endArrow=none;html=1;rounded=0;entryX=0.975;entryY=0.7;entryDx=0;entryDy=0;entryPerimeter=0;exitX=0;exitY=0;exitDx=0;exitDy=0;" edge="1" parent="1" source="37hywJdGNK_DIzSZODOu-3" target="37hywJdGNK_DIzSZODOu-16">
          <mxGeometry width="50" height="50" relative="1" as="geometry">
            <mxPoint x="390" y="280" as="sourcePoint" />
            <mxPoint x="440" y="230" as="targetPoint" />
          </mxGeometry>
        </mxCell>
        <mxCell id="37hywJdGNK_DIzSZODOu-28" value="" style="endArrow=none;html=1;rounded=0;entryX=0;entryY=0.5;entryDx=0;entryDy=0;exitX=0.5;exitY=0;exitDx=0;exitDy=0;" edge="1" parent="1" source="37hywJdGNK_DIzSZODOu-17" target="37hywJdGNK_DIzSZODOu-3">
          <mxGeometry width="50" height="50" relative="1" as="geometry">
            <mxPoint x="390" y="280" as="sourcePoint" />
            <mxPoint x="440" y="230" as="targetPoint" />
          </mxGeometry>
        </mxCell>
        <mxCell id="37hywJdGNK_DIzSZODOu-29" value="" style="endArrow=none;html=1;rounded=0;entryX=0.31;entryY=0.95;entryDx=0;entryDy=0;entryPerimeter=0;exitX=0.5;exitY=0;exitDx=0;exitDy=0;" edge="1" parent="1" source="37hywJdGNK_DIzSZODOu-14" target="37hywJdGNK_DIzSZODOu-3">
          <mxGeometry width="50" height="50" relative="1" as="geometry">
            <mxPoint x="390" y="280" as="sourcePoint" />
            <mxPoint x="440" y="230" as="targetPoint" />
          </mxGeometry>
        </mxCell>
        <mxCell id="37hywJdGNK_DIzSZODOu-30" value="" style="endArrow=none;html=1;rounded=0;exitX=0.5;exitY=0;exitDx=0;exitDy=0;" edge="1" parent="1" source="37hywJdGNK_DIzSZODOu-15" target="37hywJdGNK_DIzSZODOu-3">
          <mxGeometry width="50" height="50" relative="1" as="geometry">
            <mxPoint x="390" y="280" as="sourcePoint" />
            <mxPoint x="440" y="230" as="targetPoint" />
          </mxGeometry>
        </mxCell>
        <mxCell id="37hywJdGNK_DIzSZODOu-31" value="" style="endArrow=none;html=1;rounded=0;entryX=0.411;entryY=1.075;entryDx=0;entryDy=0;entryPerimeter=0;exitX=0.69;exitY=0.067;exitDx=0;exitDy=0;exitPerimeter=0;" edge="1" parent="1" source="37hywJdGNK_DIzSZODOu-13" target="37hywJdGNK_DIzSZODOu-25">
          <mxGeometry width="50" height="50" relative="1" as="geometry">
            <mxPoint x="390" y="280" as="sourcePoint" />
            <mxPoint x="440" y="230" as="targetPoint" />
          </mxGeometry>
        </mxCell>
        <mxCell id="37hywJdGNK_DIzSZODOu-32" value="" style="endArrow=none;html=1;rounded=0;entryX=0.05;entryY=0.85;entryDx=0;entryDy=0;entryPerimeter=0;exitX=1;exitY=0.5;exitDx=0;exitDy=0;" edge="1" parent="1" source="37hywJdGNK_DIzSZODOu-13" target="37hywJdGNK_DIzSZODOu-24">
          <mxGeometry width="50" height="50" relative="1" as="geometry">
            <mxPoint x="390" y="280" as="sourcePoint" />
            <mxPoint x="440" y="230" as="targetPoint" />
          </mxGeometry>
        </mxCell>
        <mxCell id="37hywJdGNK_DIzSZODOu-33" value="" style="endArrow=none;html=1;rounded=0;entryX=0;entryY=0.5;entryDx=0;entryDy=0;exitX=1;exitY=1;exitDx=0;exitDy=0;" edge="1" parent="1" source="37hywJdGNK_DIzSZODOu-13" target="37hywJdGNK_DIzSZODOu-23">
          <mxGeometry width="50" height="50" relative="1" as="geometry">
            <mxPoint x="390" y="280" as="sourcePoint" />
            <mxPoint x="440" y="230" as="targetPoint" />
          </mxGeometry>
        </mxCell>
        <mxCell id="37hywJdGNK_DIzSZODOu-34" value="" style="endArrow=none;html=1;rounded=0;entryX=0.5;entryY=0;entryDx=0;entryDy=0;exitX=0.5;exitY=1;exitDx=0;exitDy=0;" edge="1" parent="1" source="37hywJdGNK_DIzSZODOu-13" target="37hywJdGNK_DIzSZODOu-22">
          <mxGeometry width="50" height="50" relative="1" as="geometry">
            <mxPoint x="390" y="280" as="sourcePoint" />
            <mxPoint x="440" y="230" as="targetPoint" />
          </mxGeometry>
        </mxCell>
        <mxCell id="37hywJdGNK_DIzSZODOu-35" value="" style="endArrow=none;html=1;rounded=0;entryX=0;entryY=1;entryDx=0;entryDy=0;exitX=0.5;exitY=0;exitDx=0;exitDy=0;" edge="1" parent="1" source="37hywJdGNK_DIzSZODOu-10" target="37hywJdGNK_DIzSZODOu-13">
          <mxGeometry width="50" height="50" relative="1" as="geometry">
            <mxPoint x="390" y="280" as="sourcePoint" />
            <mxPoint x="440" y="230" as="targetPoint" />
          </mxGeometry>
        </mxCell>
        <mxCell id="37hywJdGNK_DIzSZODOu-36" value="" style="endArrow=none;html=1;rounded=0;entryX=0.37;entryY=1.017;entryDx=0;entryDy=0;entryPerimeter=0;exitX=0.5;exitY=0;exitDx=0;exitDy=0;" edge="1" parent="1" source="37hywJdGNK_DIzSZODOu-12" target="37hywJdGNK_DIzSZODOu-13">
          <mxGeometry width="50" height="50" relative="1" as="geometry">
            <mxPoint x="390" y="280" as="sourcePoint" />
            <mxPoint x="440" y="230" as="targetPoint" />
          </mxGeometry>
        </mxCell>
        <mxCell id="37hywJdGNK_DIzSZODOu-40" value="1" style="text;html=1;align=center;verticalAlign=middle;resizable=0;points=[];autosize=1;strokeColor=none;fillColor=none;" vertex="1" parent="1">
          <mxGeometry x="240" y="100" width="30" height="30" as="geometry" />
        </mxCell>
        <mxCell id="37hywJdGNK_DIzSZODOu-41" value="n" style="text;html=1;align=center;verticalAlign=middle;resizable=0;points=[];autosize=1;strokeColor=none;fillColor=none;" vertex="1" parent="1">
          <mxGeometry x="240" y="130" width="30" height="30" as="geometry" />
        </mxCell>
        <mxCell id="37hywJdGNK_DIzSZODOu-42" value="memiliki" style="text;html=1;align=center;verticalAlign=middle;resizable=0;points=[];autosize=1;strokeColor=none;fillColor=none;" vertex="1" parent="1">
          <mxGeometry x="330" y="80" width="70" height="30" as="geometry" />
        </mxCell>
        <mxCell id="37hywJdGNK_DIzSZODOu-43" value="dimiliki" style="text;html=1;align=center;verticalAlign=middle;resizable=0;points=[];autosize=1;strokeColor=none;fillColor=none;" vertex="1" parent="1">
          <mxGeometry x="335" y="155" width="60" height="30" as="geometry" />
        </mxCell>
        <mxCell id="37hywJdGNK_DIzSZODOu-44" value="1" style="text;html=1;align=center;verticalAlign=middle;resizable=0;points=[];autosize=1;strokeColor=none;fillColor=none;" vertex="1" parent="1">
          <mxGeometry x="460" y="100" width="30" height="30" as="geometry" />
        </mxCell>
        <mxCell id="37hywJdGNK_DIzSZODOu-45" value="1" style="text;html=1;align=center;verticalAlign=middle;resizable=0;points=[];autosize=1;strokeColor=none;fillColor=none;" vertex="1" parent="1">
          <mxGeometry x="460" y="130" width="30" height="30" as="geometry" />
        </mxCell>
        <mxCell id="37hywJdGNK_DIzSZODOu-50" value="Entity" style="swimlane;childLayout=stackLayout;horizontal=1;startSize=50;horizontalStack=0;rounded=1;fontSize=14;fontStyle=0;strokeWidth=2;resizeParent=0;resizeLast=1;shadow=0;dashed=0;align=center;arcSize=4;whiteSpace=wrap;html=1;" vertex="1" parent="1">
          <mxGeometry x="200" y="350" width="160" height="140" as="geometry" />
        </mxCell>
        <mxCell id="37hywJdGNK_DIzSZODOu-51" value="- obat&lt;div&gt;&lt;br&gt;&lt;/div&gt;&lt;div&gt;&lt;br&gt;&lt;/div&gt;&lt;div&gt;- jenis obat&lt;/div&gt;" style="align=left;strokeColor=none;fillColor=none;spacingLeft=4;fontSize=12;verticalAlign=top;resizable=0;rotatable=0;part=1;html=1;" vertex="1" parent="37hywJdGNK_DIzSZODOu-50">
          <mxGeometry y="50" width="160" height="90" as="geometry" />
        </mxCell>
        <mxCell id="37hywJdGNK_DIzSZODOu-52" value="Entity" style="swimlane;childLayout=stackLayout;horizontal=1;startSize=50;horizontalStack=0;rounded=1;fontSize=14;fontStyle=0;strokeWidth=2;resizeParent=0;resizeLast=1;shadow=0;dashed=0;align=center;arcSize=4;whiteSpace=wrap;html=1;" vertex="1" parent="1">
          <mxGeometry x="360" y="350" width="160" height="140" as="geometry" />
        </mxCell>
        <mxCell id="37hywJdGNK_DIzSZODOu-53" value="&lt;u style=&quot;font-weight: bold;&quot;&gt;id obat, &lt;/u&gt;komposisi,&amp;nbsp;&lt;div&gt;merek,dosis,khasiat&lt;div&gt;&lt;br&gt;&lt;/div&gt;&lt;/div&gt;&lt;div&gt;&lt;u style=&quot;font-weight: bold;&quot;&gt;id jenis obat,&lt;/u&gt;&amp;nbsp;pil, salep,&lt;/div&gt;&lt;div&gt;&amp;nbsp;infus,sirup,tablet&lt;/div&gt;" style="align=left;strokeColor=none;fillColor=none;spacingLeft=4;fontSize=12;verticalAlign=top;resizable=0;rotatable=0;part=1;html=1;" vertex="1" parent="37hywJdGNK_DIzSZODOu-52">
          <mxGeometry y="50" width="160" height="90" as="geometry" />
        </mxCell>
      </root>
    </mxGraphModel>
  </diagram>
</mxfile>
